<svg width="101" height="33" viewBox="0 0 101 33" fill="none" xmlns="http://www.w3.org/2000/svg">
<g id="Logotype">
<g id="Vector">
<path d="M10.0035 8.95459H12.6384V18.4574C12.6384 19.4991 12.3922 20.4153 11.8998 21.206C11.4121 21.9967 10.7256 22.6146 9.84015 23.0597C8.95474 23.5 7.92017 23.7202 6.73646 23.7202C5.54801 23.7202 4.51108 23.5 3.62567 23.0597C2.74025 22.6146 2.0537 21.9967 1.56601 21.206C1.07832 20.4153 0.834473 19.4991 0.834473 18.4574V8.95459H3.46942V18.2373C3.46942 18.8433 3.60199 19.3831 3.86714 19.8566C4.13703 20.3301 4.51582 20.7017 5.00351 20.9716C5.4912 21.2368 6.06885 21.3694 6.73646 21.3694C7.40408 21.3694 7.98173 21.2368 8.46942 20.9716C8.96184 20.7017 9.34063 20.3301 9.60578 19.8566C9.87093 19.3831 10.0035 18.8433 10.0035 18.2373V8.95459Z" fill="#101828"/>
<path d="M17.9598 17.108V23.5H15.3888V12.591H17.8462V14.4446H17.974C18.225 13.8339 18.6251 13.3485 19.1743 12.9887C19.7283 12.6288 20.4125 12.4489 21.2269 12.4489C21.9797 12.4489 22.6355 12.6099 23.1942 12.9319C23.7577 13.2538 24.1933 13.7202 24.501 14.331C24.8135 14.9418 24.9674 15.6828 24.9627 16.554V23.5H22.3916V16.9517C22.3916 16.2226 22.2023 15.652 21.8235 15.2401C21.4494 14.8282 20.9309 14.6222 20.2681 14.6222C19.8183 14.6222 19.4182 14.7216 19.0678 14.9205C18.7221 15.1146 18.4499 15.3964 18.251 15.7657C18.0569 16.135 17.9598 16.5824 17.9598 17.108Z" fill="#101828"/>
<path d="M33.0238 12.591V14.5796H26.7524V12.591H33.0238ZM28.3007 9.97732H30.8718V20.2188C30.8718 20.5644 30.9238 20.8296 31.028 21.0142C31.1369 21.1942 31.279 21.3173 31.4541 21.3836C31.6293 21.4499 31.8235 21.483 32.0365 21.483C32.1975 21.483 32.3443 21.4712 32.4769 21.4475C32.6142 21.4238 32.7184 21.4025 32.7894 21.3836L33.2226 23.3935C33.0853 23.4409 32.8888 23.4929 32.6331 23.5498C32.3822 23.6066 32.0744 23.6397 31.7098 23.6492C31.0659 23.6681 30.4859 23.5711 29.9698 23.358C29.4537 23.1402 29.0441 22.804 28.7411 22.3495C28.4428 21.8949 28.296 21.3267 28.3007 20.6449V9.97732Z" fill="#101828"/>
<path d="M35.174 23.5V12.591H37.745V23.5H35.174ZM36.4666 11.0427C36.0594 11.0427 35.709 10.9077 35.4154 10.6378C35.1219 10.3632 34.9751 10.0341 34.9751 9.65061C34.9751 9.26235 35.1219 8.93328 35.4154 8.6634C35.709 8.38878 36.0594 8.25146 36.4666 8.25146C36.8785 8.25146 37.2289 8.38878 37.5177 8.6634C37.8113 8.93328 37.9581 9.26235 37.9581 9.65061C37.9581 10.0341 37.8113 10.3632 37.5177 10.6378C37.2289 10.9077 36.8785 11.0427 36.4666 11.0427Z" fill="#101828"/>
<path d="M45.8363 12.591V14.5796H39.5649V12.591H45.8363ZM41.1132 9.97732H43.6843V20.2188C43.6843 20.5644 43.7363 20.8296 43.8405 21.0142C43.9494 21.1942 44.0915 21.3173 44.2666 21.3836C44.4418 21.4499 44.636 21.483 44.849 21.483C45.01 21.483 45.1568 21.4712 45.2894 21.4475C45.4267 21.4238 45.5309 21.4025 45.6019 21.3836L46.0351 23.3935C45.8978 23.4409 45.7013 23.4929 45.4456 23.5498C45.1947 23.6066 44.8869 23.6397 44.5223 23.6492C43.8784 23.6681 43.2984 23.5711 42.7823 23.358C42.2662 23.1402 41.8566 22.804 41.5536 22.3495C41.2553 21.8949 41.1085 21.3267 41.1132 20.6449V9.97732Z" fill="#101828"/>
<path d="M50.7919 8.95459V23.5H48.2208V8.95459H50.7919Z" fill="#101828"/>
<path d="M58.2652 23.7131C57.1715 23.7131 56.2269 23.4858 55.4314 23.0313C54.6407 22.572 54.0323 21.9233 53.6061 21.0853C53.18 20.2425 52.9669 19.2505 52.9669 18.1094C52.9669 16.9873 53.18 16.0024 53.6061 15.1549C54.037 14.3026 54.6383 13.6397 55.4101 13.1662C56.1819 12.688 57.0886 12.4489 58.1303 12.4489C58.8026 12.4489 59.4371 12.5578 60.0337 12.7756C60.635 12.9887 61.1653 13.3201 61.6246 13.7699C62.0886 14.2197 62.4532 14.7927 62.7184 15.4887C62.9835 16.18 63.1161 17.0038 63.1161 17.9603V18.7486H54.1743V17.0157H60.6516C60.6469 16.5232 60.5403 16.0853 60.332 15.7017C60.1237 15.3135 59.8325 15.0081 59.4584 14.7856C59.0891 14.563 58.6582 14.4517 58.1658 14.4517C57.6402 14.4517 57.1786 14.5796 56.7809 14.8353C56.3831 15.0862 56.073 15.4177 55.8505 15.8296C55.6326 16.2368 55.5214 16.6842 55.5166 17.1719V18.6847C55.5166 19.3192 55.6327 19.8637 55.8647 20.3182C56.0967 20.768 56.421 21.1137 56.8377 21.3552C57.2543 21.5919 57.742 21.7103 58.3007 21.7103C58.6748 21.7103 59.0133 21.6582 59.3164 21.554C59.6194 21.4451 59.8822 21.2865 60.1047 21.0782C60.3273 20.8698 60.4953 20.6118 60.609 20.304L63.0095 20.5739C62.858 21.2084 62.5692 21.7624 62.1431 22.2358C61.7217 22.7046 61.1819 23.0692 60.5238 23.3296C59.8656 23.5853 59.1128 23.7131 58.2652 23.7131Z" fill="#101828"/>
<path d="M69.3394 23.6918C68.4824 23.6918 67.7154 23.4716 67.0383 23.0313C66.3612 22.591 65.8262 21.9517 65.4332 21.1137C65.0402 20.2756 64.8437 19.2576 64.8437 18.0597C64.8437 16.8476 65.0426 15.8249 65.4403 14.9915C65.8428 14.1535 66.3849 13.5214 67.0667 13.0952C67.7485 12.6643 68.5085 12.4489 69.3465 12.4489C69.9857 12.4489 70.5113 12.5578 70.9232 12.7756C71.3352 12.9887 71.6619 13.2467 71.9034 13.5498C72.1448 13.8481 72.3319 14.1298 72.4644 14.3949H72.571V8.95459H75.1491V23.5H72.6207V21.7813H72.4644C72.3319 22.0464 72.1401 22.3282 71.8892 22.6265C71.6382 22.92 71.3068 23.171 70.8948 23.3793C70.4829 23.5876 69.9644 23.6918 69.3394 23.6918ZM70.0568 21.5824C70.6013 21.5824 71.0653 21.4357 71.4488 21.1421C71.8323 20.8438 72.1235 20.4295 72.3224 19.8992C72.5213 19.3689 72.6207 18.751 72.6207 18.0455C72.6207 17.34 72.5213 16.7268 72.3224 16.206C72.1283 15.6852 71.8394 15.2803 71.4559 14.9915C71.0771 14.7027 70.6107 14.5583 70.0568 14.5583C69.4839 14.5583 69.0056 14.7074 68.6221 15.0057C68.2386 15.304 67.9498 15.716 67.7556 16.2415C67.5615 16.7671 67.4644 17.3684 67.4644 18.0455C67.4644 18.7273 67.5615 19.3357 67.7556 19.8708C67.9545 20.4011 68.2457 20.8201 68.6292 21.1279C69.0175 21.4309 69.4933 21.5824 70.0568 21.5824Z" fill="#101828"/>
<path d="M92.1324 8.95459H94.7674V18.4574C94.7674 19.4991 94.5211 20.4153 94.0287 21.206C93.541 21.9967 92.8545 22.6146 91.9691 23.0597C91.0836 23.5 90.0491 23.7202 88.8654 23.7202C87.6769 23.7202 86.64 23.5 85.7546 23.0597C84.8692 22.6146 84.1826 21.9967 83.6949 21.206C83.2072 20.4153 82.9634 19.4991 82.9634 18.4574V8.95459H85.5983V18.2373C85.5983 18.8433 85.7309 19.3831 85.996 19.8566C86.2659 20.3301 86.6447 20.7017 87.1324 20.9716C87.6201 21.2368 88.1978 21.3694 88.8654 21.3694C89.533 21.3694 90.1106 21.2368 90.5983 20.9716C91.0907 20.7017 91.4695 20.3301 91.7347 19.8566C91.9998 19.3831 92.1324 18.8433 92.1324 18.2373V8.95459Z" fill="#101828"/>
<path d="M100.266 8.95459V23.5H97.6313V8.95459H100.266Z" fill="#101828"/>
</g>
</g>
</svg>
